<?xml version="1.0" encoding="UTF-8"?>
<svg id="Layer_1" data-name="Layer 1" xmlns="http://www.w3.org/2000/svg" viewBox="0 0 1877.34 976.8">
  <defs>
    <style>
      .cls-1 {
        fill: #6c8c8c;
      }

      .cls-1, .cls-2 {
        stroke-width: 0px;
      }

      .cls-2 {
        fill: #aad9d0;
      }
    </style>
  </defs>
  <path class="cls-1" d="m470.28,693.16l45.43-47.01c5.46-5.65,14.62-5.29,19.61.77,33.06,40.17,73.33,60.59,112.82,60.59,73.01,0,107.9-34.77,107.9-125.27v-291.28c0-7.27-5.89-13.16-13.16-13.16h-216.44c-7.27,0-13.16-5.89-13.16-13.16v-63.57c0-7.27,5.89-13.16,13.16-13.16h323.92c7.27,0,13.16,5.89,13.16,13.16v389.97c0,114.85-54.27,209.47-212.2,209.47-63.82,0-134.69-26.09-182.17-90.36-3.82-5.17-3.34-12.36,1.12-16.98Z"/>
  <path class="cls-1" d="m917.07,490.09c0-196.32,119.48-313.21,278.35-313.21,68.52,0,124.61,30.27,162.89,65.79,5.29,4.9,5.72,13.11.91,18.49l-42.27,47.21c-4.8,5.36-13.04,5.88-18.45,1.14-27.95-24.54-61.09-39.63-103.08-39.63-99.72,0-168.35,82.38-168.35,217.04s68.63,220.04,171.05,220.04c44.53,0,80.68-18.56,111.88-49.55,5.29-5.25,13.88-5.04,18.93.44l42.08,45.69c4.64,5.04,4.66,12.8.01,17.83-46.88,50.75-107.73,78.58-183.62,78.58-148.91,0-270.32-110.42-270.32-309.84Z"/>
  <g>
    <rect class="cls-2" x="-83.26" y="221.62" width="708.73" height="98.96" rx="34.91" ry="34.91" transform="translate(-112.29 271.1) rotate(-45)"/>
    <rect class="cls-2" x="-83.26" y="656.22" width="708.73" height="98.96" rx="34.91" ry="34.91" transform="translate(-36.21 1396.41) rotate(-135)"/>
  </g>
  <g>
    <rect class="cls-2" x="1251.87" y="221.62" width="708.73" height="98.96" rx="34.91" ry="34.91" transform="translate(2550.32 1598.58) rotate(-135)"/>
    <rect class="cls-2" x="1251.87" y="656.22" width="708.73" height="98.96" rx="34.91" ry="34.91" transform="translate(-28.55 1342.48) rotate(-45)"/>
  </g>
</svg>